<svg width="100%" height="100%" viewBox="0 0 951 301" fill="none" xmlns="http://www.w3.org/2000/svg">
<path d="M296.553 150.051C296.553 230.956 230.956 296.553 150.051 296.553C69.1448 296.553 3.54834 230.855 3.54834 150.051C3.54834 69.2463 69.1448 3.54846 150.051 3.54846C230.956 3.54846 296.553 69.145 296.553 150.051Z" fill="#CCCCCC" stroke="#999999" stroke-width="6.9044"/>
<path d="M147.11 165.664C147.11 184.522 131.801 199.932 112.842 199.932C93.9843 199.932 78.5737 184.522 78.5737 165.664C78.5737 146.806 93.9843 131.396 112.842 131.396C131.801 131.396 147.11 146.806 147.11 165.664ZM112.943 137.073C97.1273 137.073 84.3527 149.848 84.3527 165.664C84.3527 181.48 97.1273 194.255 112.943 194.255C128.76 194.255 141.534 181.48 141.534 165.664C141.534 149.848 128.557 137.073 112.943 137.073Z" fill="#666666"/>
<path d="M221.426 165.664C221.426 184.522 206.117 199.932 187.158 199.932C168.3 199.932 152.889 184.522 152.889 165.664C152.889 146.806 168.3 131.396 187.158 131.396C206.117 131.396 221.426 146.806 221.426 165.664ZM187.056 137.073C171.24 137.073 158.465 149.848 158.465 165.664C158.465 181.48 171.24 194.255 187.056 194.255C202.872 194.255 215.647 181.48 215.647 165.664C215.647 149.848 202.872 137.073 187.056 137.073Z" fill="#666666"/>
<path d="M110.003 134.336C110.003 153.194 94.5928 168.604 75.7351 168.604C56.8774 168.604 41.4668 153.194 41.4668 134.336C41.4668 115.478 56.776 100.068 75.7351 100.068C94.5928 99.9661 110.003 115.377 110.003 134.336ZM75.7351 105.745C59.919 105.745 47.1444 118.52 47.1444 134.336C47.1444 150.152 59.919 162.927 75.7351 162.927C91.5513 162.927 104.326 150.152 104.326 134.336C104.326 118.52 91.5513 105.745 75.7351 105.745Z" fill="#666666"/>
<path d="M184.319 134.336C184.319 153.194 168.908 168.604 150.051 168.604C131.193 168.604 115.782 153.194 115.782 134.336C115.782 115.478 131.193 100.068 150.051 100.068C168.908 99.9661 184.319 115.377 184.319 134.336ZM150.051 105.745C134.234 105.745 121.46 118.52 121.46 134.336C121.46 150.152 134.234 162.927 150.051 162.927C165.867 162.927 178.641 150.152 178.641 134.336C178.641 118.52 165.765 105.745 150.051 105.745Z" fill="#666666"/>
<path d="M258.635 134.336C258.635 153.194 243.224 168.604 224.366 168.604C205.509 168.604 190.098 153.194 190.098 134.336C190.098 115.478 205.509 100.068 224.366 100.068C243.224 100.068 258.635 115.377 258.635 134.336ZM224.265 105.745C208.449 105.745 195.674 118.52 195.674 134.336C195.674 150.152 208.449 162.927 224.265 162.927C240.081 162.927 252.856 150.152 252.856 134.336C252.856 118.52 240.081 105.745 224.265 105.745Z" fill="#666666"/>
<path d="M621.553 150.051C621.553 230.956 555.956 296.553 475.051 296.553C394.145 296.553 328.548 230.855 328.548 150.051C328.548 69.2463 394.145 3.54846 475.051 3.54846C555.956 3.54846 621.553 69.1449 621.553 150.051Z" fill="#FFCD00" stroke="#FFAA2A" stroke-width="6.9044"/>
<path d="M472.11 165.664C472.11 184.522 456.801 199.932 437.842 199.932C418.984 199.932 403.574 184.522 403.574 165.664C403.574 146.806 418.984 131.396 437.842 131.396C456.801 131.396 472.11 146.806 472.11 165.664ZM437.943 137.073C422.127 137.073 409.353 149.848 409.353 165.664C409.353 181.48 422.127 194.255 437.943 194.255C453.76 194.255 466.534 181.48 466.534 165.664C466.534 149.848 453.557 137.073 437.943 137.073Z" fill="#997000"/>
<path d="M546.426 165.664C546.426 184.522 531.117 199.932 512.157 199.932C493.3 199.932 477.889 184.522 477.889 165.664C477.889 146.806 493.3 131.396 512.157 131.396C531.117 131.396 546.426 146.806 546.426 165.664ZM512.056 137.073C496.24 137.073 483.465 149.848 483.465 165.664C483.465 181.48 496.24 194.255 512.056 194.255C527.872 194.255 540.647 181.48 540.647 165.664C540.647 149.848 527.872 137.073 512.056 137.073Z" fill="#997000"/>
<path d="M435.003 134.336C435.003 153.194 419.593 168.604 400.735 168.604C381.877 168.604 366.467 153.194 366.467 134.336C366.467 115.478 381.776 100.068 400.735 100.068C419.593 99.9661 435.003 115.377 435.003 134.336ZM400.735 105.745C384.919 105.745 372.144 118.52 372.144 134.336C372.144 150.152 384.919 162.927 400.735 162.927C416.551 162.927 429.326 150.152 429.326 134.336C429.326 118.52 416.551 105.745 400.735 105.745Z" fill="#997000"/>
<path d="M509.319 134.336C509.319 153.194 493.908 168.604 475.051 168.604C456.193 168.604 440.782 153.194 440.782 134.336C440.782 115.478 456.193 100.068 475.051 100.068C493.908 99.9661 509.319 115.377 509.319 134.336ZM475.051 105.745C459.234 105.745 446.46 118.52 446.46 134.336C446.46 150.152 459.234 162.927 475.051 162.927C490.867 162.927 503.641 150.152 503.641 134.336C503.641 118.52 490.765 105.745 475.051 105.745Z" fill="#997000"/>
<path d="M583.635 134.336C583.635 153.194 568.224 168.604 549.366 168.604C530.509 168.604 515.098 153.194 515.098 134.336C515.098 115.478 530.509 100.068 549.366 100.068C568.224 100.068 583.635 115.377 583.635 134.336ZM549.265 105.745C533.449 105.745 520.674 118.52 520.674 134.336C520.674 150.152 533.449 162.927 549.265 162.927C565.081 162.927 577.856 150.152 577.856 134.336C577.856 118.52 565.081 105.745 549.265 105.745Z" fill="#997000"/>
<path d="M946.553 150.051C946.553 230.956 880.956 296.553 800.051 296.553C719.145 296.553 653.548 230.855 653.548 150.051C653.548 69.2465 719.043 3.54858 800.051 3.54858C881.058 3.54858 946.553 69.1451 946.553 150.051Z" fill="#CD7F32" stroke="#A05A2C" stroke-width="6.9044"/>
<path d="M797.11 165.765C797.11 184.725 781.801 200.034 762.842 200.034C743.883 200.034 728.574 184.725 728.574 165.765C728.574 146.806 743.883 131.497 762.842 131.497C781.801 131.396 797.11 146.806 797.11 165.765ZM762.842 137.175C747.026 137.175 734.251 149.949 734.251 165.765C734.251 181.582 747.026 194.356 762.842 194.356C778.658 194.356 791.433 181.582 791.433 165.765C791.433 149.949 778.658 137.175 762.842 137.175Z" fill="#784414"/>
<path d="M871.426 165.765C871.426 184.725 856.117 200.034 837.158 200.034C818.198 200.034 802.889 184.725 802.889 165.765C802.889 146.806 818.198 131.497 837.158 131.497C856.117 131.396 871.426 146.806 871.426 165.765ZM837.158 137.175C821.341 137.175 808.567 149.949 808.567 165.765C808.567 181.582 821.341 194.356 837.158 194.356C852.974 194.356 865.748 181.582 865.748 165.765C865.748 149.949 852.974 137.175 837.158 137.175Z" fill="#784414"/>
<path d="M760.003 134.336C760.003 153.295 744.694 168.604 725.735 168.604C706.776 168.604 691.467 153.295 691.467 134.336C691.467 115.377 706.776 100.068 725.735 100.068C744.694 99.9663 760.003 115.377 760.003 134.336ZM725.735 105.745C709.919 105.745 697.144 118.52 697.144 134.336C697.144 150.152 709.919 162.927 725.735 162.927C741.551 162.927 754.326 150.152 754.326 134.336C754.326 118.52 741.45 105.745 725.735 105.745Z" fill="#784414"/>
<path d="M834.319 134.336C834.319 153.295 819.01 168.604 800.051 168.604C781.091 168.604 765.782 153.295 765.782 134.336C765.782 115.377 781.091 100.068 800.051 100.068C818.908 99.9663 834.319 115.377 834.319 134.336ZM800.051 105.745C784.234 105.745 771.46 118.52 771.46 134.336C771.46 150.152 784.234 162.927 800.051 162.927C815.867 162.927 828.641 150.152 828.641 134.336C828.641 118.52 815.765 105.745 800.051 105.745Z" fill="#784414"/>
<path d="M908.533 134.336C908.533 153.295 893.224 168.604 874.265 168.604C855.306 168.604 839.997 153.295 839.997 134.336C839.997 115.377 855.306 100.068 874.265 100.068C893.224 99.9663 908.533 115.377 908.533 134.336ZM874.265 105.745C858.449 105.745 845.674 118.52 845.674 134.336C845.674 150.152 858.449 162.927 874.265 162.927C890.081 162.927 902.856 150.152 902.856 134.336C902.856 118.52 890.081 105.745 874.265 105.745Z" fill="#784414"/>
</svg>
